<svg id="Layer_1" data-name="Layer 1" xmlns="http://www.w3.org/2000/svg" xmlns:xlink="http://www.w3.org/1999/xlink" viewBox="0 0 800.18 230.38"><defs><style>.cls-1{fill:#5c0a39;}.cls-2{fill:url(#linear-gradient);}.cls-3{fill:url(#linear-gradient-2);}.cls-4{fill:#5d0e40;}.cls-5{fill:url(#linear-gradient-3);}.cls-6{fill:url(#linear-gradient-4);}.cls-7{fill:url(#linear-gradient-5);}.cls-8{fill:url(#linear-gradient-6);}.cls-9{fill:url(#linear-gradient-7);}.cls-10{fill:url(#linear-gradient-8);}.cls-11{fill:#fff;}.cls-12{fill:url(#linear-gradient-9);}.cls-13{fill:url(#linear-gradient-10);}.cls-14{fill:url(#linear-gradient-11);}.cls-15{fill:url(#linear-gradient-12);}</style><linearGradient id="linear-gradient" x1="385.94" y1="500.13" x2="498.41" y2="500.13" gradientUnits="userSpaceOnUse"><stop offset="0" stop-color="#fff33b"/><stop offset="0" stop-color="#fee93c"/><stop offset="0" stop-color="#f9c73f"/><stop offset="0" stop-color="#f5ac41"/><stop offset="0" stop-color="#f29943"/><stop offset="0" stop-color="#f18e44"/><stop offset="0" stop-color="#f08a44"/><stop offset="0" stop-color="#ed683c"/><stop offset="0" stop-color="#f28b3f"/><stop offset="0.01" stop-color="#ef763d"/><stop offset="0.01" stop-color="#f6a42b"/><stop offset="0.02" stop-color="#fdc70c"/><stop offset="0.03" stop-color="#f0803e"/><stop offset="0.05" stop-color="#ed6b3d"/><stop offset="1" stop-color="#b91d7d"/><stop offset="1" stop-color="#e93e3a"/></linearGradient><linearGradient id="linear-gradient-2" x1="573.05" y1="495.18" x2="683.55" y2="495.18" gradientUnits="userSpaceOnUse"><stop offset="0" stop-color="#a9206f"/><stop offset="0.94" stop-color="#f0803e"/><stop offset="0.99" stop-color="#ef763d"/><stop offset="1" stop-color="#fff33b"/><stop offset="1" stop-color="#fff13b"/><stop offset="1" stop-color="#f9c73b"/><stop offset="1" stop-color="#f5a53c"/><stop offset="1" stop-color="#f18a3c"/><stop offset="1" stop-color="#ef773c"/><stop offset="1" stop-color="#ed6c3c"/><stop offset="1" stop-color="#ed683c"/><stop offset="1" stop-color="#fdc70c"/><stop offset="1" stop-color="#f28b3f"/><stop offset="1" stop-color="#f6a42b"/><stop offset="1" stop-color="#ed6b3d"/><stop offset="1" stop-color="#b91d7d"/><stop offset="1" stop-color="#e93e3a"/></linearGradient><linearGradient id="linear-gradient-3" x1="615.38" y1="430.47" x2="636.79" y2="430.47" gradientUnits="userSpaceOnUse"><stop offset="0" stop-color="#fff33b"/><stop offset="0" stop-color="#fee93c"/><stop offset="0" stop-color="#f9c73f"/><stop offset="0" stop-color="#f5ac41"/><stop offset="0" stop-color="#f29943"/><stop offset="0" stop-color="#f18e44"/><stop offset="0" stop-color="#f08a44"/><stop offset="0" stop-color="#ed683c"/><stop offset="0" stop-color="#f28b3f"/><stop offset="0.01" stop-color="#ef763d"/><stop offset="0.01" stop-color="#f6a42b"/><stop offset="0.02" stop-color="#fdc70c"/><stop offset="0.03" stop-color="#f0803e"/><stop offset="0.03" stop-color="#f07f3e"/><stop offset="0.04" stop-color="#ee743d"/><stop offset="0.04" stop-color="#ed6d3d"/><stop offset="0.05" stop-color="#ed6b3d"/><stop offset="1" stop-color="#b91d7d"/><stop offset="1" stop-color="#ad1a76"/><stop offset="1" stop-color="#921365"/><stop offset="1" stop-color="#7c0e57"/><stop offset="1" stop-color="#6b094d"/><stop offset="1" stop-color="#600645"/><stop offset="1" stop-color="#590441"/><stop offset="1" stop-color="#570440"/></linearGradient><linearGradient id="linear-gradient-4" x1="570.95" y1="458.09" x2="591.05" y2="458.09" xlink:href="#linear-gradient-3"/><linearGradient id="linear-gradient-5" x1="593.93" y1="440.87" x2="611.83" y2="440.87" xlink:href="#linear-gradient-3"/><linearGradient id="linear-gradient-6" x1="477.51" y1="458.45" x2="498.29" y2="458.45" gradientUnits="userSpaceOnUse"><stop offset="0" stop-color="#fff33b"/><stop offset="0" stop-color="#fee93c"/><stop offset="0" stop-color="#f9c73f"/><stop offset="0" stop-color="#f5ac41"/><stop offset="0" stop-color="#f29943"/><stop offset="0" stop-color="#f18e44"/><stop offset="0" stop-color="#f08a44"/><stop offset="0" stop-color="#ed683c"/><stop offset="0" stop-color="#f28b3f"/><stop offset="0" stop-color="#eb6940"/><stop offset="0" stop-color="#ed6b3d"/><stop offset="0" stop-color="#f0803e"/><stop offset="0" stop-color="#f1843c"/><stop offset="0" stop-color="#f39a33"/><stop offset="0" stop-color="#f5ab2c"/><stop offset="0" stop-color="#f7b627"/><stop offset="0" stop-color="#f8bd24"/><stop offset="0" stop-color="#f8bf23"/><stop offset="0" stop-color="#f9bf21"/><stop offset="0.01" stop-color="#ef763d"/><stop offset="0.01" stop-color="#b91d7d"/><stop offset="1" stop-color="#eb6940"/><stop offset="1" stop-color="#b91d7d"/></linearGradient><linearGradient id="linear-gradient-7" x1="456.94" y1="441.02" x2="474.96" y2="441.02" xlink:href="#linear-gradient-6"/><linearGradient id="linear-gradient-8" x1="431.81" y1="430.28" x2="453.39" y2="430.28" xlink:href="#linear-gradient-6"/><linearGradient id="linear-gradient-9" x1="123.98" y1="57.58" x2="137.34" y2="57.58" xlink:href="#linear-gradient-2"/><linearGradient id="linear-gradient-10" x1="135.5" y1="71.28" x2="148.86" y2="71.28" xlink:href="#linear-gradient-2"/><linearGradient id="linear-gradient-11" x1="166.89" y1="71.28" x2="180.25" y2="71.28" xlink:href="#linear-gradient-2"/><linearGradient id="linear-gradient-12" x1="177.73" y1="57.58" x2="191.09" y2="57.58" xlink:href="#linear-gradient-2"/></defs><title>xpecto design</title><path class="cls-1" d="M531.61,548.55c-1.34,1.53-2.59,1.37-4.16.5-5.39-3-11-5.54-16.25-8.74a60.14,60.14,0,0,1-8.89-7.26c-13.06-11.91-26-23.91-39.12-35.79a11.38,11.38,0,0,0-4.65-2.41c-4.2-1.14-8.51-1.86-12.71-3a11.23,11.23,0,0,1-4.49-2.33q-12.91-11.65-25.6-23.53a4.22,4.22,0,0,0-4.59-1.11c-7.91,2.18-15.87,4.18-23.8,6.3a1.82,1.82,0,0,1-2.48-.91c-2.74-4.53-5.63-9-8.58-13.63l2.91-.76c12.65-3.31,25.32-6.59,37.95-10a3.89,3.89,0,0,1,4.23,1q54.69,50.49,109.47,100.9C531.08,548,531.3,548.25,531.61,548.55Z" transform="translate(-376.29 -319.32)"/><path class="cls-1" d="M539.8,547.6l14.68-14.46q45.72-45,91.42-90a4.18,4.18,0,0,1,4.48-1.27c12.93,3,25.89,5.92,38.84,8.86l2,.46c-2.84,4.86-5.53,9.54-8.35,14.14a2.38,2.38,0,0,1-2,.58c-8.1-1.77-16.21-3.57-24.27-5.52a3.76,3.76,0,0,0-4,1.19c-8.1,8-16.28,16-24.38,24a11.22,11.22,0,0,1-5.54,3.14c-4.09,1-8.18,2-12.2,3.2a10.77,10.77,0,0,0-4.23,2.39c-14.07,13.68-28.06,27.46-42.12,41.16a28.4,28.4,0,0,1-5.14,3.92c-5.05,3-10.22,5.78-15.27,8.79C542.13,549.09,541,549,539.8,547.6Z" transform="translate(-376.29 -319.32)"/><path class="cls-2" d="M386.19,474.77c9-2.36,18-4.74,27-7a3,3,0,0,1,2.26.82c8.34,7.87,16.6,15.81,24.94,23.66a9.22,9.22,0,0,0,3.6,2c4.49,1.32,9.06,2.35,13.53,3.7a13.14,13.14,0,0,1,4.7,2.42c11.66,10,23.24,20.13,34.84,30.22.46.4.9.84,1.35,1.27l-.24.68a14.81,14.81,0,0,1-3.65-.8q-26-13.29-52-26.7t-52-26.73a54,54,0,0,1-4.58-2.95Z" transform="translate(-376.29 -319.32)"/><path class="cls-3" d="M683.55,467.93A43.38,43.38,0,0,1,679.4,471q-29.74,16.61-59.53,33.13-20.73,11.53-41.45,23.1c-1.58.87-3.1,2.17-5.37,1.11.48-.51.87-1,1.3-1.38,11.21-10.41,22.39-20.84,33.67-31.18a13.13,13.13,0,0,1,4.56-2.62c4.34-1.48,8.79-2.61,13.13-4.09a11.05,11.05,0,0,0,4.15-2.49c7.89-7.89,15.68-15.86,23.45-23.85a2.89,2.89,0,0,1,3.14-1c8.26,1.95,16.55,3.8,24.83,5.67Z" transform="translate(-376.29 -319.32)"/><path class="cls-4" d="M537.76,537V505.66q0-43.86,0-87.7a6.45,6.45,0,0,1,2.33-5.4c3.15-2.74,6-5.8,9.1-8.6a6.06,6.06,0,0,0,2.17-5q-.15-10.89,0-21.79c0-2.68-.1-4.92-2.59-6.88-2.79-2.2-2.39-6.26.24-8.6a6.09,6.09,0,0,1,8.76.48,5.86,5.86,0,0,1-.66,8.69,4.47,4.47,0,0,0-1.69,3.95c.06,7.42,0,14.84,0,23.06,2.85-3,6.09-4.41,5.84-8.95-.39-6.88-.13-13.79-.08-20.69,0-2.81,0-5.3-2.34-7.65-2.72-2.78-1.82-6.66,1.31-8.65a6.27,6.27,0,0,1,8.89,2.33c1.43,2.65.65,5-1.2,7a6.28,6.28,0,0,0-1.73,4.88c.08,6.89,0,13.79,0,21.59l16.3-15.36c1.91,3.94.74,10.72-2.29,13.54-10.56,9.82-21.1,19.68-31.72,29.45a5.76,5.76,0,0,0-2,4.69c.06,35.32,0,70.63.09,106a5.57,5.57,0,0,1-2,4.73C542.37,532.53,540.4,534.51,537.76,537Z" transform="translate(-376.29 -319.32)"/><path class="cls-1" d="M652.3,393.7,650,396.6c-6.56-3.72-13.23-7-19.39-11.13a38.35,38.35,0,0,0-23.7-6.59c-6.25.25-11.16,1.24-15.48,6.15-4.77,5.43-10.31,10.18-15.57,15.18-2.71,2.57-2.76,2.52-6.22.86,2.52-2.57,5-5.21,7.56-7.7,6.92-6.67,13.85-13.34,20.9-19.86a7.31,7.31,0,0,1,4.27-1.71c4.43-.23,8.88-.15,13.32-.08a5.67,5.67,0,0,1,2.82.78C629.68,379.45,640.79,386.46,652.3,393.7Z" transform="translate(-376.29 -319.32)"/><path class="cls-1" d="M636.57,412.77c-.88,2.37-2.05,2.32-3.72,1.36-3.78-2.16-7.7-4.06-11.44-6.27-2.6-1.53-5.31-1.85-8.24-2.21-7.66-.93-13.29,1.63-18.56,7.35-7.24,7.84-15.42,14.82-23.21,22.16-.72.68-1.47,1.32-2.29,2.07l-1.73-1.5a3.59,3.59,0,0,1,.4-.77q15.81-15.72,31.68-31.41a4.19,4.19,0,0,1,2.65-1c4.9-.09,9.8-.07,14.69,0a5.16,5.16,0,0,1,2.35.48C624.94,406.22,630.69,409.47,636.57,412.77Z" transform="translate(-376.29 -319.32)"/><path class="cls-1" d="M549.91,522.68c0-3.07-.13-5.59.06-8.09a5.16,5.16,0,0,1,1.39-2.77A92.93,92.93,0,0,1,558,505a6.13,6.13,0,0,0,2.21-5.5c-.15-1.89,0-3.79,0-5.45l-8.86,9.09-1.16-.87c.14-3.26-1.12-6.77,2.54-9.32,1.39-1,2.27-2.67,3.67-3.62,5.5-3.75,3.46-9.19,3.82-14.53l-10.06,9.89c-.25-4.14-1.06-7.57,2.4-10.15,1.36-1,2.28-2.66,3.68-3.61,5.61-3.77,3.67-9.29,3.9-14.32l-.72-.49-8.7,9.4-.62-.4c-.05-.78-.14-1.55-.15-2.33,0-13.71,0-27.41,0-41.12a4.71,4.71,0,0,1,1.29-3q6.11-6,12.48-11.75a4,4,0,0,1,2.89-.91c7,1.13,12.2-1.48,16.85-6.75,4.36-4.95,9.52-9.2,14.44-13.63.9-.81,2.37-1,3.58-1.46.08,0,.18,0,.27,0,13.9-2.63,25,4.29,36.38,10.51,3,1.64,6,3.2,9,4.8-2,3.49-2,3.49-5.18,1.86a15,15,0,0,1-1.67-.91c-1.48-1-2.6-.87-3.53.77-.7,1.25-1.57,2.4-2.52,3.82l5.78,3.51c-.79,1.89-1.7,2.61-3.7,1.48q-8.05-4.53-16.26-8.8a8.48,8.48,0,0,0-3.57-1c-5.26-.1-10.53-.11-15.79,0a5.23,5.23,0,0,0-3.27,1.39q-15.42,15.38-30.63,31a7.2,7.2,0,0,0-1.74,4.53q-.07,34,.13,68.07a5.56,5.56,0,0,1-1.95,4.49c-3.7,3.47-7.25,7.11-10.88,10.66C551.78,521,551,521.65,549.91,522.68Z" transform="translate(-376.29 -319.32)"/><path class="cls-1" d="M421.53,399.44c7-3.64,14.09-7,20.87-11,5.6-3.28,11.35-4.28,17.79-4.5,6.72-.24,11.66,1.6,16.13,6.56s9.63,9.35,14.61,13.84a5.45,5.45,0,0,0,3.79,1.49c6.8-1,11.49,1.92,16.46,6.43,5.56,5.05,8.22,10,7.7,17.71-.73,10.75-.19,21.59-.19,32.39v3.57l-9.1-10.05-1.09.68c.66,4.58-1.77,9.75,3.19,13.54a30.59,30.59,0,0,1,3.27,3.27c4.06,4.16,4,4.16,3.56,10.82l-8.95-9.58-.94.64c.38,4.73-1.92,10,3.42,13.7,1,.71,1.68,1.94,2.69,2.68,3.62,2.66,4.75,6.16,3.57,11l-8.44-9.81-1.19.87c.32,4-1.71,8.48,2.61,11.8.93.72,1.54,1.86,2.49,2.51,5,3.46,5.81,8.32,4.61,14a13,13,0,0,1-1.35-1c-4-3.87-8-7.69-11.8-11.68a6.05,6.05,0,0,1-1.6-3.75c-.07-22.87,0-45.74-.07-68.62a6.77,6.77,0,0,0-1.63-4.27Q486.67,417,471.13,401.55a5.27,5.27,0,0,0-3.3-1.32q-7.89-.21-15.79,0a9.65,9.65,0,0,0-4.06,1.25c-5.21,2.74-10.4,5.52-15.52,8.45-2,1.12-2.94.54-3.87-1.45l5.91-3.43a53.06,53.06,0,0,0-3.14-4.55,2.36,2.36,0,0,0-2-.48,13,13,0,0,0-2.68,1.3C423.45,403,423.44,403,421.53,399.44Z" transform="translate(-376.29 -319.32)"/><path class="cls-1" d="M485.61,371.63c5.94,5.63,11.23,10.62,17,16.1v-5.16c0-4.81,0-9.62,0-14.43,0-2.79,0-5.33-2.21-7.72s-1.69-5.84.79-8a6.37,6.37,0,0,1,8.23.09c2.49,2.21,3.09,5.43.61,8s-2.37,5-2.35,7.91c0,6.35.37,12.73-.11,19.05-.35,4.69,1.85,7.38,5.53,9.93.07-.95.19-1.69.19-2.44,0-6.63-.05-13.25,0-19.88a5,5,0,0,0-1.86-4.43,5.36,5.36,0,0,1-1.42-6.89,6,6,0,0,1,5.87-3.66,6.3,6.3,0,0,1,5.76,4.63,5.6,5.6,0,0,1-2.4,6.42,4.24,4.24,0,0,0-1.76,3.92c.07,8.17,0,16.34.11,24.5a6.53,6.53,0,0,0,1.7,4c2.92,3.1,6,6,9.21,8.86A6.89,6.89,0,0,1,531,418c0,19.87.13,39.74.08,59.61,0,18.78-.27,37.57-.42,56.35,0,.87-.08,1.74-.1,2.32-2.52-2.33-5.18-4.61-7.59-7.13-.6-.63-.53-2-.53-3.07q0-52.94,0-105.89a6,6,0,0,0-2.15-4.9c-10.54-9.7-21-19.55-31.54-29.21-2.33-2.13-3.68-4.27-3.25-7.52A58.17,58.17,0,0,0,485.61,371.63Z" transform="translate(-376.29 -319.32)"/><path class="cls-5" d="M615.38,452.94V408c1.84.57,3.38.75,4.59,1.47,5,3,10,6.15,14.94,9.41.88.58,1.24,2,1.81,3,.08.14,0,.36,0,.54.19,9.61.19,9.61-6.74,16.34Z" transform="translate(-376.29 -319.32)"/><path class="cls-6" d="M571.2,495.18c-.07-1.41-.19-2.64-.19-3.87,0-16.68-.09-33.36,0-50A5,5,0,0,1,572.2,438c5.91-5.61,12-11.08,18.35-16.95.14,1.34.33,2.34.34,3.33q.12,25.16.16,50.31a4.09,4.09,0,0,1-.9,2.65c-5.93,5.87-11.94,11.65-17.94,17.44A4.36,4.36,0,0,1,571.2,495.18Z" transform="translate(-376.29 -319.32)"/><path class="cls-7" d="M593.93,473.43c0-18.45,0-36.23.05-54a4.1,4.1,0,0,1,1.13-2.54c1.57-1.64,3.55-2.91,4.95-4.66,3.05-3.83,6.93-4.46,11.6-3.5,0,.79.12,1.67.12,2.55,0,14,0,28,.05,41.92a6.85,6.85,0,0,1-2.28,5.52c-4.58,4.27-9,8.66-13.56,13C595.49,472.18,594.93,472.59,593.93,473.43Z" transform="translate(-376.29 -319.32)"/><path class="cls-8" d="M478.52,421.3c3.65,3.34,7.32,6.67,11,10,2.79,2.58,6.61,4.75,8,8s.55,7.66.54,11.55c-.07,13.88-.2,27.75-.32,41.63,0,.88-.15,1.76-.28,3.13-4.51-4.38-8.41-8.83-13-12.42-5.46-4.27-7.14-9.31-6.88-16.12.55-14.14.27-28.3.33-42.45,0-1,0-2,0-3Z" transform="translate(-376.29 -319.32)"/><path class="cls-9" d="M457.08,408.78c4.95-1.16,8.31.38,11.88,3.43,4.48,3.83,6.17,7.83,6,13.72-.44,14.41-.15,28.85-.15,43.28v4.43C470,469,465.94,464.75,461.5,461c-3.37-2.9-4.66-6.08-4.55-10.58.31-12.78.12-25.58.13-38.38Z" transform="translate(-376.29 -319.32)"/><path class="cls-10" d="M453.39,408v44.58c-.85-.66-1.42-1-1.88-1.47-5.87-5.67-11.78-11.3-17.52-17.1a7.08,7.08,0,0,1-1.81-4.22c-.2-3.24-.92-7,.45-9.6s5-3.64,7.63-5.35c2.82-1.81,5.63-3.66,8.54-5.31A27.28,27.28,0,0,1,453.39,408Z" transform="translate(-376.29 -319.32)"/><path class="cls-1" d="M499.22,401c-2.34,1.68-4.1,1.51-6.17-.57-6.65-6.67-13.48-13.17-20.36-19.6a6.69,6.69,0,0,0-4-1.63c-5.62-.18-11.24-.16-16.86,0a10.38,10.38,0,0,0-4.58,1.27c-8.86,4.94-17.64,10-26.46,15-.61.35-1.26.64-2,1l-2.2-2.81c4.7-3,9.19-5.83,13.69-8.66,6.28-4,12.53-8,18.89-11.8a11.24,11.24,0,0,1,5.06-1.47c4.25-.21,8.52-.15,12.78,0a5.19,5.19,0,0,1,3.15,1.17c9.49,8.95,18.9,18,28.32,27A8.13,8.13,0,0,1,499.22,401Z" transform="translate(-376.29 -319.32)"/><path class="cls-1" d="M432.21,412.8c6-3.36,11.84-6.71,17.78-10a5.35,5.35,0,0,1,2.39-.28c2.81,0,5.67.29,8.43-.07,5.44-.73,9.27,1.34,13,5.28,8.48,8.93,17.41,17.44,26.19,26.09,1.26,1.25,1.87,2.28-.41,3.36-5.17-4.88-10.44-9.83-15.7-14.8s-10.6-10.15-16-15.1a7.32,7.32,0,0,0-3.81-1.49c-8.48-1.07-16.32.61-23.34,5.71-1.52,1.1-3.4,1.71-5,2.73S433.05,415,432.21,412.8Z" transform="translate(-376.29 -319.32)"/><text x="-376.29" y="-319.32"/><polygon class="cls-11" points="206.06 52.86 159.37 97.39 155.66 97.39 104.92 48.35 110.97 19.75 214.75 24.99 206.06 52.86"/><circle class="cls-12" cx="130.66" cy="57.58" r="6.68"/><circle class="cls-13" cx="142.18" cy="71.28" r="6.68"/><circle class="cls-14" cx="173.57" cy="71.28" r="6.68"/><circle class="cls-15" cx="184.41" cy="57.58" r="6.68"/></svg>