<svg xmlns="http://www.w3.org/2000/svg" version="1.1" xmlns:xlink="http://www.w3.org/1999/xlink" xmlns:svgjs="http://svgjs.com/svgjs" width="1400" height="1000" preserveAspectRatio="none" viewBox="0 0 1400 1000"><g mask="url(&quot;#SvgjsMask1081&quot;)" fill="none"><rect width="1400" height="1000" x="0" y="0" fill="rgba(0, 11, 23, 1)"></rect><path d="M43.11 671.37L155.7 736.37L155.7 866.37L43.11 931.37L-69.48 866.37L-69.48 736.37zM493.46 -108.63L606.04 -43.63L606.04 86.37L493.46 151.37L380.87 86.37L380.87 -43.63zM606.04 476.37L718.63 541.37L718.63 671.37L606.04 736.37L493.46 671.37L493.46 541.37zM718.63 281.37L831.22 346.37L831.22 476.37L718.63 541.37L606.04 476.37L606.04 346.37zM831.22 476.37L943.8 541.37L943.8 671.37L831.22 736.37L718.63 671.37L718.63 541.37zM1056.39 86.37L1168.97 151.37L1168.97 281.37L1056.39 346.37L943.8 281.37L943.8 151.37zM1056.39 476.37L1168.97 541.37L1168.97 671.37L1056.39 736.37L943.8 671.37L943.8 541.37zM1056.39 866.37L1168.97 931.37L1168.97 1061.37L1056.39 1126.37L943.8 1061.37L943.8 931.37zM1168.97 -108.63L1281.56 -43.63L1281.56 86.37L1168.97 151.37L1056.39 86.37L1056.39 -43.63zM1281.56 86.37L1394.15 151.37L1394.15 281.37L1281.56 346.37L1168.97 281.37L1168.97 151.37zM1394.15 -108.63L1506.73 -43.63L1506.73 86.37L1394.15 151.37L1281.56 86.37L1281.56 -43.63zM1506.73 86.37L1619.32 151.37L1619.32 281.37L1506.73 346.37L1394.15 281.37L1394.15 151.37zM1506.73 866.37L1619.32 931.37L1619.32 1061.37L1506.73 1126.37L1394.15 1061.37L1394.15 931.37z" stroke="#03305d" stroke-width="2"></path><path d="M30.11 671.37 a13 13 0 1 0 26 0 a13 13 0 1 0 -26 0zM142.7 736.37 a13 13 0 1 0 26 0 a13 13 0 1 0 -26 0zM142.7 866.37 a13 13 0 1 0 26 0 a13 13 0 1 0 -26 0zM30.11 931.37 a13 13 0 1 0 26 0 a13 13 0 1 0 -26 0zM-82.48 866.37 a13 13 0 1 0 26 0 a13 13 0 1 0 -26 0zM-82.48 736.37 a13 13 0 1 0 26 0 a13 13 0 1 0 -26 0zM480.46 -108.63 a13 13 0 1 0 26 0 a13 13 0 1 0 -26 0zM593.04 -43.63 a13 13 0 1 0 26 0 a13 13 0 1 0 -26 0zM593.04 86.37 a13 13 0 1 0 26 0 a13 13 0 1 0 -26 0zM480.46 151.37 a13 13 0 1 0 26 0 a13 13 0 1 0 -26 0zM367.87 86.37 a13 13 0 1 0 26 0 a13 13 0 1 0 -26 0zM367.87 -43.63 a13 13 0 1 0 26 0 a13 13 0 1 0 -26 0zM593.04 476.37 a13 13 0 1 0 26 0 a13 13 0 1 0 -26 0zM705.63 541.37 a13 13 0 1 0 26 0 a13 13 0 1 0 -26 0zM705.63 671.37 a13 13 0 1 0 26 0 a13 13 0 1 0 -26 0zM593.04 736.37 a13 13 0 1 0 26 0 a13 13 0 1 0 -26 0zM480.46 671.37 a13 13 0 1 0 26 0 a13 13 0 1 0 -26 0zM480.46 541.37 a13 13 0 1 0 26 0 a13 13 0 1 0 -26 0zM705.63 281.37 a13 13 0 1 0 26 0 a13 13 0 1 0 -26 0zM818.22 346.37 a13 13 0 1 0 26 0 a13 13 0 1 0 -26 0zM818.22 476.37 a13 13 0 1 0 26 0 a13 13 0 1 0 -26 0zM593.04 346.37 a13 13 0 1 0 26 0 a13 13 0 1 0 -26 0zM930.8 541.37 a13 13 0 1 0 26 0 a13 13 0 1 0 -26 0zM930.8 671.37 a13 13 0 1 0 26 0 a13 13 0 1 0 -26 0zM818.22 736.37 a13 13 0 1 0 26 0 a13 13 0 1 0 -26 0zM1043.39 86.37 a13 13 0 1 0 26 0 a13 13 0 1 0 -26 0zM1155.97 151.37 a13 13 0 1 0 26 0 a13 13 0 1 0 -26 0zM1155.97 281.37 a13 13 0 1 0 26 0 a13 13 0 1 0 -26 0zM1043.39 346.37 a13 13 0 1 0 26 0 a13 13 0 1 0 -26 0zM930.8 281.37 a13 13 0 1 0 26 0 a13 13 0 1 0 -26 0zM930.8 151.37 a13 13 0 1 0 26 0 a13 13 0 1 0 -26 0zM1043.39 476.37 a13 13 0 1 0 26 0 a13 13 0 1 0 -26 0zM1155.97 541.37 a13 13 0 1 0 26 0 a13 13 0 1 0 -26 0zM1155.97 671.37 a13 13 0 1 0 26 0 a13 13 0 1 0 -26 0zM1043.39 736.37 a13 13 0 1 0 26 0 a13 13 0 1 0 -26 0zM1043.39 866.37 a13 13 0 1 0 26 0 a13 13 0 1 0 -26 0zM1155.97 931.37 a13 13 0 1 0 26 0 a13 13 0 1 0 -26 0zM1155.97 1061.37 a13 13 0 1 0 26 0 a13 13 0 1 0 -26 0zM1043.39 1126.37 a13 13 0 1 0 26 0 a13 13 0 1 0 -26 0zM930.8 1061.37 a13 13 0 1 0 26 0 a13 13 0 1 0 -26 0zM930.8 931.37 a13 13 0 1 0 26 0 a13 13 0 1 0 -26 0zM1155.97 -108.63 a13 13 0 1 0 26 0 a13 13 0 1 0 -26 0zM1268.56 -43.63 a13 13 0 1 0 26 0 a13 13 0 1 0 -26 0zM1268.56 86.37 a13 13 0 1 0 26 0 a13 13 0 1 0 -26 0zM1043.39 -43.63 a13 13 0 1 0 26 0 a13 13 0 1 0 -26 0zM1381.15 151.37 a13 13 0 1 0 26 0 a13 13 0 1 0 -26 0zM1381.15 281.37 a13 13 0 1 0 26 0 a13 13 0 1 0 -26 0zM1268.56 346.37 a13 13 0 1 0 26 0 a13 13 0 1 0 -26 0zM1381.15 -108.63 a13 13 0 1 0 26 0 a13 13 0 1 0 -26 0zM1493.73 -43.63 a13 13 0 1 0 26 0 a13 13 0 1 0 -26 0zM1493.73 86.37 a13 13 0 1 0 26 0 a13 13 0 1 0 -26 0zM1606.32 151.37 a13 13 0 1 0 26 0 a13 13 0 1 0 -26 0zM1606.32 281.37 a13 13 0 1 0 26 0 a13 13 0 1 0 -26 0zM1493.73 346.37 a13 13 0 1 0 26 0 a13 13 0 1 0 -26 0zM1493.73 866.37 a13 13 0 1 0 26 0 a13 13 0 1 0 -26 0zM1606.32 931.37 a13 13 0 1 0 26 0 a13 13 0 1 0 -26 0zM1606.32 1061.37 a13 13 0 1 0 26 0 a13 13 0 1 0 -26 0zM1493.73 1126.37 a13 13 0 1 0 26 0 a13 13 0 1 0 -26 0zM1381.15 1061.37 a13 13 0 1 0 26 0 a13 13 0 1 0 -26 0zM1381.15 931.37 a13 13 0 1 0 26 0 a13 13 0 1 0 -26 0z" fill="#03305d"></path><path d="M33.4 -54.09L135.59 4.91L135.59 122.91L33.4 181.91L-68.79 122.91L-68.79 4.91zM237.79 1007.91L339.98 1066.91L339.98 1184.91L237.79 1243.91L135.59 1184.91L135.59 1066.91zM850.95 653.91L953.15 712.91L953.15 830.91L850.95 889.91L748.76 830.91L748.76 712.91zM850.95 1007.91L953.15 1066.91L953.15 1184.91L850.95 1243.91L748.76 1184.91L748.76 1066.91zM1157.53 476.91L1259.73 535.91L1259.73 653.91L1157.53 712.91L1055.34 653.91L1055.34 535.91zM1361.92 122.91L1464.11 181.91L1464.11 299.91L1361.92 358.91L1259.73 299.91L1259.73 181.91z" stroke="rgba(6, 80, 156, 0.93)" stroke-width="2"></path></g><defs><mask id="SvgjsMask1081"><rect width="1400" height="1000" fill="#ffffff"></rect></mask></defs></svg>